<?xml version="1.0" standalone="no"?>
<!DOCTYPE svg PUBLIC "-//W3C//DTD SVG 20010904//EN"
 "http://www.w3.org/TR/2001/REC-SVG-20010904/DTD/svg10.dtd">
<svg version="1.0" xmlns="http://www.w3.org/2000/svg"
 width="720.000000pt" height="346.000000pt" viewBox="0 0 720.000000 346.000000"
 preserveAspectRatio="xMidYMid meet">

<g transform="translate(0.000000,346.000000) scale(0.100000,-0.100000)"
fill="#FFFFFF" stroke="none">
<path d="M6355 3023 c-104 -54 -143 -165 -92 -260 26 -49 317 -333 342 -333
27 0 322 288 346 338 45 91 9 197 -82 247 -78 42 -158 32 -245 -30 -19 -14
-23 -14 -45 3 -68 53 -162 68 -224 35z m148 -47 c18 -7 41 -23 52 -36 40 -44
52 -44 101 -1 51 45 101 58 161 42 83 -23 127 -116 89 -189 -13 -23 -203 -216
-277 -281 l-27 -22 -142 137 c-78 76 -146 147 -152 158 -17 32 -13 115 9 144
41 55 120 76 186 48z"/>
<path d="M6149 2696 c-277 -114 -475 -385 -503 -688 -6 -67 -6 -68 18 -68 27
0 28 4 46 125 30 200 156 398 325 510 55 37 173 95 193 95 13 0 15 10 6 34 -8
21 -18 20 -85 -8z"/>
<path d="M6243 2581 c-100 -37 -178 -86 -254 -161 -126 -125 -194 -275 -201
-445 -3 -85 -2 -90 18 -93 19 -3 22 6 37 113 26 180 87 304 201 408 55 50 156
107 236 133 50 16 65 25 65 40 0 26 -38 28 -102 5z"/>
<path d="M6345 2463 c-52 -8 -176 -71 -231 -118 -67 -58 -135 -161 -163 -247
-25 -81 -30 -232 -7 -241 22 -9 36 14 36 57 1 186 81 339 228 433 54 35 152
70 212 75 28 2 36 8 38 26 3 20 0 22 -40 21 -24 -1 -56 -4 -73 -6z"/>
<path d="M5395 1840 c-29 -29 -47 -40 -70 -40 -39 0 -58 -13 -53 -36 2 -15 13
-20 46 -22 40 -3 48 1 92 42 l49 46 123 0 123 0 50 -45 50 -45 121 0 c103 0
125 -3 145 -18 28 -23 30 -73 4 -102 -16 -18 -33 -20 -169 -22 l-151 -3 0 -25
0 -25 257 -3 257 -2 103 78 c57 43 143 108 191 145 48 37 93 67 100 67 24 0
57 -31 57 -55 0 -19 -27 -45 -127 -121 -71 -54 -174 -133 -230 -176 l-102 -78
-408 0 -409 0 -39 40 c-35 36 -44 40 -88 40 -44 0 -48 -2 -45 -22 2 -18 10
-24 39 -26 26 -2 46 -13 75 -43 l38 -39 431 0 430 0 232 178 c259 199 276 218
248 284 -19 47 -64 72 -113 64 -24 -3 -89 -46 -213 -141 l-179 -135 -65 0 -65
0 11 27 c13 35 4 84 -22 117 -34 43 -80 56 -198 56 l-107 0 -39 40 -39 40
-151 0 -151 0 -39 -40z"/>
<path d="M625 1146 c-22 -9 -55 -31 -72 -50 -29 -31 -33 -42 -33 -91 0 -91 48
-138 171 -170 85 -22 117 -41 125 -71 20 -79 -144 -101 -178 -23 -12 27 -16
29 -72 29 -56 0 -58 -1 -52 -22 3 -13 6 -28 6 -35 0 -20 51 -73 91 -93 29 -16
59 -20 127 -20 83 0 92 2 131 31 51 36 75 88 68 143 -10 75 -64 116 -205 157
-51 14 -77 28 -88 44 -30 46 6 85 77 85 41 0 66 -15 84 -50 14 -27 20 -30 66
-30 61 0 68 12 41 74 -30 66 -81 96 -174 102 -50 3 -86 0 -113 -10z"/>
<path d="M3955 1151 c-81 -21 -145 -77 -183 -160 -21 -46 -24 -64 -20 -130 7
-117 58 -195 158 -240 70 -32 199 -29 268 5 65 32 104 77 131 149 70 187 -53
373 -254 381 -38 2 -83 0 -100 -5z m177 -132 c50 -36 69 -73 70 -138 1 -107
-59 -171 -162 -171 -92 0 -158 57 -167 144 -6 52 16 123 47 151 52 47 156 53
212 14z"/>
<path d="M4610 1151 c-89 -29 -147 -80 -183 -160 -16 -36 -19 -60 -15 -130 4
-78 7 -91 39 -141 28 -43 49 -63 96 -88 54 -28 70 -32 142 -32 167 0 268 87
279 242 l5 68 -152 0 -152 0 3 -42 3 -43 85 -5 c93 -5 96 -9 59 -61 -10 -15
-39 -35 -64 -44 -96 -37 -192 11 -221 111 -14 50 -14 58 1 103 41 123 177 162
269 76 48 -45 160 -48 149 -5 -9 34 -79 104 -129 129 -51 26 -167 38 -214 22z"/>
<path d="M1052 878 l3 -273 57 -3 57 -3 3 113 3 113 85 3 c135 5 129 10 132
-116 l3 -107 58 -3 57 -3 0 276 0 276 -57 -3 -58 -3 -3 -102 -3 -103 -109 0
-110 0 0 105 0 105 -60 0 -60 0 2 -272z"/>
<path d="M1793 1113 c-67 -159 -200 -499 -196 -505 2 -5 30 -8 62 -8 l57 0 21
50 21 50 110 0 109 0 21 -50 21 -50 60 0 c34 0 61 2 61 5 0 6 -145 377 -164
420 -7 17 -21 51 -31 78 l-18 47 -59 0 c-59 0 -59 0 -75 -37z m116 -221 c17
-46 29 -88 25 -93 -7 -12 -131 -12 -139 1 -5 8 4 36 53 153 8 21 19 34 23 30
4 -4 22 -46 38 -91z"/>
<path d="M2230 876 l0 -276 55 0 55 0 0 80 c0 77 1 81 26 90 48 19 68 4 119
-86 l47 -84 64 0 c36 0 64 4 64 10 0 5 -22 47 -49 92 l-50 82 44 47 c66 70 74
174 19 246 -45 59 -72 67 -241 71 l-153 4 0 -276z m285 144 c30 -29 33 -77 6
-111 -15 -19 -32 -24 -83 -29 -101 -8 -98 -10 -98 79 0 43 3 81 8 85 4 4 37 6
74 4 54 -3 72 -8 93 -28z"/>
<path d="M2780 875 l0 -275 180 0 180 0 0 50 0 49 -117 3 -118 3 -3 63 -3 62
106 0 105 0 0 50 0 50 -105 0 -105 0 0 60 0 60 115 0 c113 0 115 0 121 24 3
13 4 35 2 47 l-3 24 -177 3 -178 2 0 -275z"/>
<path d="M3214 1136 c-3 -8 -4 -31 -2 -52 l3 -39 85 -5 85 -5 5 -215 5 -215
55 0 55 0 5 215 5 215 83 3 82 3 0 54 0 55 -230 0 c-188 0 -232 -3 -236 -14z"/>
<path d="M5087 1144 c-10 -10 -8 -516 1 -532 7 -9 50 -12 183 -10 l174 3 3 47
3 47 -123 3 -123 3 0 60 0 60 105 5 105 5 0 45 0 45 -107 3 -108 3 0 59 0 59
118 3 117 3 0 45 0 45 -171 3 c-93 1 -173 -1 -177 -4z"/>
<path d="M5568 1144 c-11 -10 -10 -516 1 -533 14 -22 272 -10 331 16 109 48
160 128 160 251 0 115 -48 194 -148 243 -41 20 -65 24 -192 27 -80 2 -148 0
-152 -4z m298 -130 c54 -40 69 -70 69 -139 0 -74 -19 -107 -81 -143 -31 -18
-52 -22 -104 -20 l-65 3 -3 150 c-1 82 0 155 3 163 9 23 146 12 181 -14z"/>
<path d="M6321 1124 c-27 -59 -201 -504 -201 -514 0 -6 25 -10 59 -10 l59 0
21 50 22 50 110 0 109 0 10 -27 c26 -70 29 -73 92 -73 32 0 58 4 58 9 0 5 -22
64 -49 132 -27 68 -70 178 -96 244 -72 181 -60 165 -125 165 -51 0 -58 -2 -69
-26z m108 -224 c43 -112 44 -110 -37 -110 -38 0 -71 2 -74 5 -5 5 14 61 51
158 6 15 15 27 20 27 5 0 23 -36 40 -80z"/>
</g>
</svg>
